%TF.GenerationSoftware,KiCad,Pcbnew,10.0.4*%
%TF.CreationDate,2026-07-17T11:43:02+05:30*%
%TF.ProjectId,Rowwy,526f7777-792e-46b6-9963-61645f706362,rev?*%
%TF.SameCoordinates,Original*%
%TF.FileFunction,Drillmap*%
%TF.FilePolarity,Positive*%
%FSLAX45Y45*%
G04 Gerber Fmt 4.5, Leading zero omitted, Abs format (unit mm)*
G04 Created by KiCad (PCBNEW 10.0.4) date 2026-07-17 11:43:02*
%MOMM*%
%LPD*%
G01*
G04 APERTURE LIST*
%ADD10C,0.050000*%
%ADD11C,0.200000*%
%ADD12C,0.100000*%
G04 APERTURE END LIST*
D10*
X7515000Y-12868000D02*
X7515000Y-12868000D01*
G75*
G02*
X7915000Y-12468000I400000J0D01*
G01*
X13772000Y-12468000D01*
G75*
G02*
X14172000Y-12868000I0J-400000D01*
G01*
X14172000Y-15346000D01*
G75*
G02*
X13772000Y-15746000I-400000J0D01*
G01*
X7915000Y-15746000D01*
G75*
G02*
X7515000Y-15346000I0J400000D01*
G01*
X7515000Y-12868000D01*
X9091000Y-15182000D02*
G75*
G02*
X8491000Y-15182000I-300000J0D01*
G01*
X8491000Y-15182000D02*
G75*
G02*
X9091000Y-15182000I300000J0D01*
G01*
X12960000Y-15220000D02*
G75*
G02*
X12360000Y-15220000I-300000J0D01*
G01*
X12360000Y-15220000D02*
G75*
G02*
X12960000Y-15220000I300000J0D01*
G01*
X14012000Y-12873000D02*
G75*
G02*
X13412000Y-12873000I-300000J0D01*
G01*
X13412000Y-12873000D02*
G75*
G02*
X14012000Y-12873000I300000J0D01*
G01*
D11*
D12*
X9792000Y-15137500D02*
X9822000Y-15167500D01*
X9822000Y-15137500D02*
X9792000Y-15167500D01*
X9884000Y-14110000D02*
X9914000Y-14140000D01*
X9914000Y-14110000D02*
X9884000Y-14140000D01*
X9884000Y-14265000D02*
X9914000Y-14295000D01*
X9914000Y-14265000D02*
X9884000Y-14295000D01*
X10707000Y-14277000D02*
X10737000Y-14307000D01*
X10737000Y-14277000D02*
X10707000Y-14307000D01*
X11123000Y-13473500D02*
X11153000Y-13503500D01*
X11153000Y-13473500D02*
X11123000Y-13503500D01*
X11620000Y-13793000D02*
X11650000Y-13823000D01*
X11650000Y-13793000D02*
X11620000Y-13823000D01*
X11873000Y-14123000D02*
X11903000Y-14153000D01*
X11903000Y-14123000D02*
X11873000Y-14153000D01*
X11873000Y-14278000D02*
X11903000Y-14308000D01*
X11903000Y-14278000D02*
X11873000Y-14308000D01*
X11940000Y-14874000D02*
X11970000Y-14904000D01*
X11970000Y-14874000D02*
X11940000Y-14904000D01*
X12022000Y-14123000D02*
X12052000Y-14153000D01*
X12052000Y-14123000D02*
X12022000Y-14153000D01*
D11*
X7773277Y-16059984D02*
X7773277Y-15859984D01*
X7773277Y-15859984D02*
X7820896Y-15859984D01*
X7820896Y-15859984D02*
X7849467Y-15869508D01*
X7849467Y-15869508D02*
X7868515Y-15888555D01*
X7868515Y-15888555D02*
X7878039Y-15907603D01*
X7878039Y-15907603D02*
X7887562Y-15945698D01*
X7887562Y-15945698D02*
X7887562Y-15974269D01*
X7887562Y-15974269D02*
X7878039Y-16012365D01*
X7878039Y-16012365D02*
X7868515Y-16031412D01*
X7868515Y-16031412D02*
X7849467Y-16050460D01*
X7849467Y-16050460D02*
X7820896Y-16059984D01*
X7820896Y-16059984D02*
X7773277Y-16059984D01*
X7973277Y-16059984D02*
X7973277Y-15926650D01*
X7973277Y-15964746D02*
X7982801Y-15945698D01*
X7982801Y-15945698D02*
X7992324Y-15936174D01*
X7992324Y-15936174D02*
X8011372Y-15926650D01*
X8011372Y-15926650D02*
X8030420Y-15926650D01*
X8097086Y-16059984D02*
X8097086Y-15926650D01*
X8097086Y-15859984D02*
X8087562Y-15869508D01*
X8087562Y-15869508D02*
X8097086Y-15879031D01*
X8097086Y-15879031D02*
X8106610Y-15869508D01*
X8106610Y-15869508D02*
X8097086Y-15859984D01*
X8097086Y-15859984D02*
X8097086Y-15879031D01*
X8220896Y-16059984D02*
X8201848Y-16050460D01*
X8201848Y-16050460D02*
X8192324Y-16031412D01*
X8192324Y-16031412D02*
X8192324Y-15859984D01*
X8325658Y-16059984D02*
X8306610Y-16050460D01*
X8306610Y-16050460D02*
X8297086Y-16031412D01*
X8297086Y-16031412D02*
X8297086Y-15859984D01*
X8554229Y-16059984D02*
X8554229Y-15859984D01*
X8554229Y-15859984D02*
X8620896Y-16002841D01*
X8620896Y-16002841D02*
X8687563Y-15859984D01*
X8687563Y-15859984D02*
X8687563Y-16059984D01*
X8868515Y-16059984D02*
X8868515Y-15955222D01*
X8868515Y-15955222D02*
X8858991Y-15936174D01*
X8858991Y-15936174D02*
X8839944Y-15926650D01*
X8839944Y-15926650D02*
X8801848Y-15926650D01*
X8801848Y-15926650D02*
X8782801Y-15936174D01*
X8868515Y-16050460D02*
X8849467Y-16059984D01*
X8849467Y-16059984D02*
X8801848Y-16059984D01*
X8801848Y-16059984D02*
X8782801Y-16050460D01*
X8782801Y-16050460D02*
X8773277Y-16031412D01*
X8773277Y-16031412D02*
X8773277Y-16012365D01*
X8773277Y-16012365D02*
X8782801Y-15993317D01*
X8782801Y-15993317D02*
X8801848Y-15983793D01*
X8801848Y-15983793D02*
X8849467Y-15983793D01*
X8849467Y-15983793D02*
X8868515Y-15974269D01*
X8963753Y-15926650D02*
X8963753Y-16126650D01*
X8963753Y-15936174D02*
X8982801Y-15926650D01*
X8982801Y-15926650D02*
X9020896Y-15926650D01*
X9020896Y-15926650D02*
X9039944Y-15936174D01*
X9039944Y-15936174D02*
X9049467Y-15945698D01*
X9049467Y-15945698D02*
X9058991Y-15964746D01*
X9058991Y-15964746D02*
X9058991Y-16021888D01*
X9058991Y-16021888D02*
X9049467Y-16040936D01*
X9049467Y-16040936D02*
X9039944Y-16050460D01*
X9039944Y-16050460D02*
X9020896Y-16059984D01*
X9020896Y-16059984D02*
X8982801Y-16059984D01*
X8982801Y-16059984D02*
X8963753Y-16050460D01*
X9144705Y-16040936D02*
X9154229Y-16050460D01*
X9154229Y-16050460D02*
X9144705Y-16059984D01*
X9144705Y-16059984D02*
X9135182Y-16050460D01*
X9135182Y-16050460D02*
X9144705Y-16040936D01*
X9144705Y-16040936D02*
X9144705Y-16059984D01*
X9144705Y-15936174D02*
X9154229Y-15945698D01*
X9154229Y-15945698D02*
X9144705Y-15955222D01*
X9144705Y-15955222D02*
X9135182Y-15945698D01*
X9135182Y-15945698D02*
X9144705Y-15936174D01*
X9144705Y-15936174D02*
X9144705Y-15955222D01*
D12*
X7482500Y-16373500D02*
X7512500Y-16403500D01*
X7512500Y-16373500D02*
X7482500Y-16403500D01*
D11*
X7811372Y-16279984D02*
X7830420Y-16279984D01*
X7830420Y-16279984D02*
X7849467Y-16289508D01*
X7849467Y-16289508D02*
X7858991Y-16299031D01*
X7858991Y-16299031D02*
X7868515Y-16318079D01*
X7868515Y-16318079D02*
X7878039Y-16356174D01*
X7878039Y-16356174D02*
X7878039Y-16403793D01*
X7878039Y-16403793D02*
X7868515Y-16441888D01*
X7868515Y-16441888D02*
X7858991Y-16460936D01*
X7858991Y-16460936D02*
X7849467Y-16470460D01*
X7849467Y-16470460D02*
X7830420Y-16479984D01*
X7830420Y-16479984D02*
X7811372Y-16479984D01*
X7811372Y-16479984D02*
X7792324Y-16470460D01*
X7792324Y-16470460D02*
X7782801Y-16460936D01*
X7782801Y-16460936D02*
X7773277Y-16441888D01*
X7773277Y-16441888D02*
X7763753Y-16403793D01*
X7763753Y-16403793D02*
X7763753Y-16356174D01*
X7763753Y-16356174D02*
X7773277Y-16318079D01*
X7773277Y-16318079D02*
X7782801Y-16299031D01*
X7782801Y-16299031D02*
X7792324Y-16289508D01*
X7792324Y-16289508D02*
X7811372Y-16279984D01*
X7963753Y-16460936D02*
X7973277Y-16470460D01*
X7973277Y-16470460D02*
X7963753Y-16479984D01*
X7963753Y-16479984D02*
X7954229Y-16470460D01*
X7954229Y-16470460D02*
X7963753Y-16460936D01*
X7963753Y-16460936D02*
X7963753Y-16479984D01*
X8039943Y-16279984D02*
X8163753Y-16279984D01*
X8163753Y-16279984D02*
X8097086Y-16356174D01*
X8097086Y-16356174D02*
X8125658Y-16356174D01*
X8125658Y-16356174D02*
X8144705Y-16365698D01*
X8144705Y-16365698D02*
X8154229Y-16375222D01*
X8154229Y-16375222D02*
X8163753Y-16394269D01*
X8163753Y-16394269D02*
X8163753Y-16441888D01*
X8163753Y-16441888D02*
X8154229Y-16460936D01*
X8154229Y-16460936D02*
X8144705Y-16470460D01*
X8144705Y-16470460D02*
X8125658Y-16479984D01*
X8125658Y-16479984D02*
X8068515Y-16479984D01*
X8068515Y-16479984D02*
X8049467Y-16470460D01*
X8049467Y-16470460D02*
X8039943Y-16460936D01*
X8287562Y-16279984D02*
X8306610Y-16279984D01*
X8306610Y-16279984D02*
X8325658Y-16289508D01*
X8325658Y-16289508D02*
X8335182Y-16299031D01*
X8335182Y-16299031D02*
X8344705Y-16318079D01*
X8344705Y-16318079D02*
X8354229Y-16356174D01*
X8354229Y-16356174D02*
X8354229Y-16403793D01*
X8354229Y-16403793D02*
X8344705Y-16441888D01*
X8344705Y-16441888D02*
X8335182Y-16460936D01*
X8335182Y-16460936D02*
X8325658Y-16470460D01*
X8325658Y-16470460D02*
X8306610Y-16479984D01*
X8306610Y-16479984D02*
X8287562Y-16479984D01*
X8287562Y-16479984D02*
X8268515Y-16470460D01*
X8268515Y-16470460D02*
X8258991Y-16460936D01*
X8258991Y-16460936D02*
X8249467Y-16441888D01*
X8249467Y-16441888D02*
X8239943Y-16403793D01*
X8239943Y-16403793D02*
X8239943Y-16356174D01*
X8239943Y-16356174D02*
X8249467Y-16318079D01*
X8249467Y-16318079D02*
X8258991Y-16299031D01*
X8258991Y-16299031D02*
X8268515Y-16289508D01*
X8268515Y-16289508D02*
X8287562Y-16279984D01*
X8478039Y-16279984D02*
X8497086Y-16279984D01*
X8497086Y-16279984D02*
X8516134Y-16289508D01*
X8516134Y-16289508D02*
X8525658Y-16299031D01*
X8525658Y-16299031D02*
X8535182Y-16318079D01*
X8535182Y-16318079D02*
X8544705Y-16356174D01*
X8544705Y-16356174D02*
X8544705Y-16403793D01*
X8544705Y-16403793D02*
X8535182Y-16441888D01*
X8535182Y-16441888D02*
X8525658Y-16460936D01*
X8525658Y-16460936D02*
X8516134Y-16470460D01*
X8516134Y-16470460D02*
X8497086Y-16479984D01*
X8497086Y-16479984D02*
X8478039Y-16479984D01*
X8478039Y-16479984D02*
X8458991Y-16470460D01*
X8458991Y-16470460D02*
X8449467Y-16460936D01*
X8449467Y-16460936D02*
X8439944Y-16441888D01*
X8439944Y-16441888D02*
X8430420Y-16403793D01*
X8430420Y-16403793D02*
X8430420Y-16356174D01*
X8430420Y-16356174D02*
X8439944Y-16318079D01*
X8439944Y-16318079D02*
X8449467Y-16299031D01*
X8449467Y-16299031D02*
X8458991Y-16289508D01*
X8458991Y-16289508D02*
X8478039Y-16279984D01*
X8630420Y-16479984D02*
X8630420Y-16346650D01*
X8630420Y-16365698D02*
X8639944Y-16356174D01*
X8639944Y-16356174D02*
X8658991Y-16346650D01*
X8658991Y-16346650D02*
X8687563Y-16346650D01*
X8687563Y-16346650D02*
X8706610Y-16356174D01*
X8706610Y-16356174D02*
X8716134Y-16375222D01*
X8716134Y-16375222D02*
X8716134Y-16479984D01*
X8716134Y-16375222D02*
X8725658Y-16356174D01*
X8725658Y-16356174D02*
X8744705Y-16346650D01*
X8744705Y-16346650D02*
X8773277Y-16346650D01*
X8773277Y-16346650D02*
X8792325Y-16356174D01*
X8792325Y-16356174D02*
X8801848Y-16375222D01*
X8801848Y-16375222D02*
X8801848Y-16479984D01*
X8897086Y-16479984D02*
X8897086Y-16346650D01*
X8897086Y-16365698D02*
X8906610Y-16356174D01*
X8906610Y-16356174D02*
X8925658Y-16346650D01*
X8925658Y-16346650D02*
X8954229Y-16346650D01*
X8954229Y-16346650D02*
X8973277Y-16356174D01*
X8973277Y-16356174D02*
X8982801Y-16375222D01*
X8982801Y-16375222D02*
X8982801Y-16479984D01*
X8982801Y-16375222D02*
X8992325Y-16356174D01*
X8992325Y-16356174D02*
X9011372Y-16346650D01*
X9011372Y-16346650D02*
X9039944Y-16346650D01*
X9039944Y-16346650D02*
X9058991Y-16356174D01*
X9058991Y-16356174D02*
X9068515Y-16375222D01*
X9068515Y-16375222D02*
X9068515Y-16479984D01*
X9458991Y-16270460D02*
X9287563Y-16527603D01*
X9716134Y-16279984D02*
X9735182Y-16279984D01*
X9735182Y-16279984D02*
X9754229Y-16289508D01*
X9754229Y-16289508D02*
X9763753Y-16299031D01*
X9763753Y-16299031D02*
X9773277Y-16318079D01*
X9773277Y-16318079D02*
X9782801Y-16356174D01*
X9782801Y-16356174D02*
X9782801Y-16403793D01*
X9782801Y-16403793D02*
X9773277Y-16441888D01*
X9773277Y-16441888D02*
X9763753Y-16460936D01*
X9763753Y-16460936D02*
X9754229Y-16470460D01*
X9754229Y-16470460D02*
X9735182Y-16479984D01*
X9735182Y-16479984D02*
X9716134Y-16479984D01*
X9716134Y-16479984D02*
X9697087Y-16470460D01*
X9697087Y-16470460D02*
X9687563Y-16460936D01*
X9687563Y-16460936D02*
X9678039Y-16441888D01*
X9678039Y-16441888D02*
X9668515Y-16403793D01*
X9668515Y-16403793D02*
X9668515Y-16356174D01*
X9668515Y-16356174D02*
X9678039Y-16318079D01*
X9678039Y-16318079D02*
X9687563Y-16299031D01*
X9687563Y-16299031D02*
X9697087Y-16289508D01*
X9697087Y-16289508D02*
X9716134Y-16279984D01*
X9868515Y-16460936D02*
X9878039Y-16470460D01*
X9878039Y-16470460D02*
X9868515Y-16479984D01*
X9868515Y-16479984D02*
X9858991Y-16470460D01*
X9858991Y-16470460D02*
X9868515Y-16460936D01*
X9868515Y-16460936D02*
X9868515Y-16479984D01*
X10001848Y-16279984D02*
X10020896Y-16279984D01*
X10020896Y-16279984D02*
X10039944Y-16289508D01*
X10039944Y-16289508D02*
X10049468Y-16299031D01*
X10049468Y-16299031D02*
X10058991Y-16318079D01*
X10058991Y-16318079D02*
X10068515Y-16356174D01*
X10068515Y-16356174D02*
X10068515Y-16403793D01*
X10068515Y-16403793D02*
X10058991Y-16441888D01*
X10058991Y-16441888D02*
X10049468Y-16460936D01*
X10049468Y-16460936D02*
X10039944Y-16470460D01*
X10039944Y-16470460D02*
X10020896Y-16479984D01*
X10020896Y-16479984D02*
X10001848Y-16479984D01*
X10001848Y-16479984D02*
X9982801Y-16470460D01*
X9982801Y-16470460D02*
X9973277Y-16460936D01*
X9973277Y-16460936D02*
X9963753Y-16441888D01*
X9963753Y-16441888D02*
X9954229Y-16403793D01*
X9954229Y-16403793D02*
X9954229Y-16356174D01*
X9954229Y-16356174D02*
X9963753Y-16318079D01*
X9963753Y-16318079D02*
X9973277Y-16299031D01*
X9973277Y-16299031D02*
X9982801Y-16289508D01*
X9982801Y-16289508D02*
X10001848Y-16279984D01*
X10258991Y-16479984D02*
X10144706Y-16479984D01*
X10201848Y-16479984D02*
X10201848Y-16279984D01*
X10201848Y-16279984D02*
X10182801Y-16308555D01*
X10182801Y-16308555D02*
X10163753Y-16327603D01*
X10163753Y-16327603D02*
X10144706Y-16337127D01*
X10449468Y-16479984D02*
X10335182Y-16479984D01*
X10392325Y-16479984D02*
X10392325Y-16279984D01*
X10392325Y-16279984D02*
X10373277Y-16308555D01*
X10373277Y-16308555D02*
X10354229Y-16327603D01*
X10354229Y-16327603D02*
X10335182Y-16337127D01*
X10563753Y-16365698D02*
X10544706Y-16356174D01*
X10544706Y-16356174D02*
X10535182Y-16346650D01*
X10535182Y-16346650D02*
X10525658Y-16327603D01*
X10525658Y-16327603D02*
X10525658Y-16318079D01*
X10525658Y-16318079D02*
X10535182Y-16299031D01*
X10535182Y-16299031D02*
X10544706Y-16289508D01*
X10544706Y-16289508D02*
X10563753Y-16279984D01*
X10563753Y-16279984D02*
X10601849Y-16279984D01*
X10601849Y-16279984D02*
X10620896Y-16289508D01*
X10620896Y-16289508D02*
X10630420Y-16299031D01*
X10630420Y-16299031D02*
X10639944Y-16318079D01*
X10639944Y-16318079D02*
X10639944Y-16327603D01*
X10639944Y-16327603D02*
X10630420Y-16346650D01*
X10630420Y-16346650D02*
X10620896Y-16356174D01*
X10620896Y-16356174D02*
X10601849Y-16365698D01*
X10601849Y-16365698D02*
X10563753Y-16365698D01*
X10563753Y-16365698D02*
X10544706Y-16375222D01*
X10544706Y-16375222D02*
X10535182Y-16384746D01*
X10535182Y-16384746D02*
X10525658Y-16403793D01*
X10525658Y-16403793D02*
X10525658Y-16441888D01*
X10525658Y-16441888D02*
X10535182Y-16460936D01*
X10535182Y-16460936D02*
X10544706Y-16470460D01*
X10544706Y-16470460D02*
X10563753Y-16479984D01*
X10563753Y-16479984D02*
X10601849Y-16479984D01*
X10601849Y-16479984D02*
X10620896Y-16470460D01*
X10620896Y-16470460D02*
X10630420Y-16460936D01*
X10630420Y-16460936D02*
X10639944Y-16441888D01*
X10639944Y-16441888D02*
X10639944Y-16403793D01*
X10639944Y-16403793D02*
X10630420Y-16384746D01*
X10630420Y-16384746D02*
X10620896Y-16375222D01*
X10620896Y-16375222D02*
X10601849Y-16365698D01*
X10716134Y-16279984D02*
X10716134Y-16318079D01*
X10792325Y-16279984D02*
X10792325Y-16318079D01*
X11087563Y-16556174D02*
X11078039Y-16546650D01*
X11078039Y-16546650D02*
X11058991Y-16518079D01*
X11058991Y-16518079D02*
X11049468Y-16499031D01*
X11049468Y-16499031D02*
X11039944Y-16470460D01*
X11039944Y-16470460D02*
X11030420Y-16422841D01*
X11030420Y-16422841D02*
X11030420Y-16384746D01*
X11030420Y-16384746D02*
X11039944Y-16337127D01*
X11039944Y-16337127D02*
X11049468Y-16308555D01*
X11049468Y-16308555D02*
X11058991Y-16289508D01*
X11058991Y-16289508D02*
X11078039Y-16260936D01*
X11078039Y-16260936D02*
X11087563Y-16251412D01*
X11268515Y-16479984D02*
X11154230Y-16479984D01*
X11211372Y-16479984D02*
X11211372Y-16279984D01*
X11211372Y-16279984D02*
X11192325Y-16308555D01*
X11192325Y-16308555D02*
X11173277Y-16327603D01*
X11173277Y-16327603D02*
X11154230Y-16337127D01*
X11392325Y-16279984D02*
X11411372Y-16279984D01*
X11411372Y-16279984D02*
X11430420Y-16289508D01*
X11430420Y-16289508D02*
X11439944Y-16299031D01*
X11439944Y-16299031D02*
X11449468Y-16318079D01*
X11449468Y-16318079D02*
X11458991Y-16356174D01*
X11458991Y-16356174D02*
X11458991Y-16403793D01*
X11458991Y-16403793D02*
X11449468Y-16441888D01*
X11449468Y-16441888D02*
X11439944Y-16460936D01*
X11439944Y-16460936D02*
X11430420Y-16470460D01*
X11430420Y-16470460D02*
X11411372Y-16479984D01*
X11411372Y-16479984D02*
X11392325Y-16479984D01*
X11392325Y-16479984D02*
X11373277Y-16470460D01*
X11373277Y-16470460D02*
X11363753Y-16460936D01*
X11363753Y-16460936D02*
X11354229Y-16441888D01*
X11354229Y-16441888D02*
X11344706Y-16403793D01*
X11344706Y-16403793D02*
X11344706Y-16356174D01*
X11344706Y-16356174D02*
X11354229Y-16318079D01*
X11354229Y-16318079D02*
X11363753Y-16299031D01*
X11363753Y-16299031D02*
X11373277Y-16289508D01*
X11373277Y-16289508D02*
X11392325Y-16279984D01*
X11697087Y-16479984D02*
X11697087Y-16279984D01*
X11782801Y-16479984D02*
X11782801Y-16375222D01*
X11782801Y-16375222D02*
X11773277Y-16356174D01*
X11773277Y-16356174D02*
X11754230Y-16346650D01*
X11754230Y-16346650D02*
X11725658Y-16346650D01*
X11725658Y-16346650D02*
X11706610Y-16356174D01*
X11706610Y-16356174D02*
X11697087Y-16365698D01*
X11906610Y-16479984D02*
X11887563Y-16470460D01*
X11887563Y-16470460D02*
X11878039Y-16460936D01*
X11878039Y-16460936D02*
X11868515Y-16441888D01*
X11868515Y-16441888D02*
X11868515Y-16384746D01*
X11868515Y-16384746D02*
X11878039Y-16365698D01*
X11878039Y-16365698D02*
X11887563Y-16356174D01*
X11887563Y-16356174D02*
X11906610Y-16346650D01*
X11906610Y-16346650D02*
X11935182Y-16346650D01*
X11935182Y-16346650D02*
X11954230Y-16356174D01*
X11954230Y-16356174D02*
X11963753Y-16365698D01*
X11963753Y-16365698D02*
X11973277Y-16384746D01*
X11973277Y-16384746D02*
X11973277Y-16441888D01*
X11973277Y-16441888D02*
X11963753Y-16460936D01*
X11963753Y-16460936D02*
X11954230Y-16470460D01*
X11954230Y-16470460D02*
X11935182Y-16479984D01*
X11935182Y-16479984D02*
X11906610Y-16479984D01*
X12087563Y-16479984D02*
X12068515Y-16470460D01*
X12068515Y-16470460D02*
X12058991Y-16451412D01*
X12058991Y-16451412D02*
X12058991Y-16279984D01*
X12239944Y-16470460D02*
X12220896Y-16479984D01*
X12220896Y-16479984D02*
X12182801Y-16479984D01*
X12182801Y-16479984D02*
X12163753Y-16470460D01*
X12163753Y-16470460D02*
X12154230Y-16451412D01*
X12154230Y-16451412D02*
X12154230Y-16375222D01*
X12154230Y-16375222D02*
X12163753Y-16356174D01*
X12163753Y-16356174D02*
X12182801Y-16346650D01*
X12182801Y-16346650D02*
X12220896Y-16346650D01*
X12220896Y-16346650D02*
X12239944Y-16356174D01*
X12239944Y-16356174D02*
X12249468Y-16375222D01*
X12249468Y-16375222D02*
X12249468Y-16394269D01*
X12249468Y-16394269D02*
X12154230Y-16413317D01*
X12325658Y-16470460D02*
X12344706Y-16479984D01*
X12344706Y-16479984D02*
X12382801Y-16479984D01*
X12382801Y-16479984D02*
X12401849Y-16470460D01*
X12401849Y-16470460D02*
X12411372Y-16451412D01*
X12411372Y-16451412D02*
X12411372Y-16441888D01*
X12411372Y-16441888D02*
X12401849Y-16422841D01*
X12401849Y-16422841D02*
X12382801Y-16413317D01*
X12382801Y-16413317D02*
X12354230Y-16413317D01*
X12354230Y-16413317D02*
X12335182Y-16403793D01*
X12335182Y-16403793D02*
X12325658Y-16384746D01*
X12325658Y-16384746D02*
X12325658Y-16375222D01*
X12325658Y-16375222D02*
X12335182Y-16356174D01*
X12335182Y-16356174D02*
X12354230Y-16346650D01*
X12354230Y-16346650D02*
X12382801Y-16346650D01*
X12382801Y-16346650D02*
X12401849Y-16356174D01*
X12478039Y-16556174D02*
X12487563Y-16546650D01*
X12487563Y-16546650D02*
X12506611Y-16518079D01*
X12506611Y-16518079D02*
X12516134Y-16499031D01*
X12516134Y-16499031D02*
X12525658Y-16470460D01*
X12525658Y-16470460D02*
X12535182Y-16422841D01*
X12535182Y-16422841D02*
X12535182Y-16384746D01*
X12535182Y-16384746D02*
X12525658Y-16337127D01*
X12525658Y-16337127D02*
X12516134Y-16308555D01*
X12516134Y-16308555D02*
X12506611Y-16289508D01*
X12506611Y-16289508D02*
X12487563Y-16260936D01*
X12487563Y-16260936D02*
X12478039Y-16251412D01*
M02*
