%TF.GenerationSoftware,KiCad,Pcbnew,10.0.4*%
%TF.CreationDate,2026-07-17T11:43:02+05:30*%
%TF.ProjectId,Rowwy,526f7777-792e-46b6-9963-61645f706362,rev?*%
%TF.SameCoordinates,Original*%
%TF.FileFunction,Drillmap*%
%TF.FilePolarity,Positive*%
%FSLAX45Y45*%
G04 Gerber Fmt 4.5, Leading zero omitted, Abs format (unit mm)*
G04 Created by KiCad (PCBNEW 10.0.4) date 2026-07-17 11:43:02*
%MOMM*%
%LPD*%
G01*
G04 APERTURE LIST*
%ADD10C,0.050000*%
%ADD11C,0.200000*%
G04 APERTURE END LIST*
D10*
X7515000Y-12868000D02*
X7515000Y-12868000D01*
G75*
G02*
X7915000Y-12468000I400000J0D01*
G01*
X13772000Y-12468000D01*
G75*
G02*
X14172000Y-12868000I0J-400000D01*
G01*
X14172000Y-15346000D01*
G75*
G02*
X13772000Y-15746000I-400000J0D01*
G01*
X7915000Y-15746000D01*
G75*
G02*
X7515000Y-15346000I0J400000D01*
G01*
X7515000Y-12868000D01*
X9091000Y-15182000D02*
G75*
G02*
X8491000Y-15182000I-300000J0D01*
G01*
X8491000Y-15182000D02*
G75*
G02*
X9091000Y-15182000I300000J0D01*
G01*
X12960000Y-15220000D02*
G75*
G02*
X12360000Y-15220000I-300000J0D01*
G01*
X12360000Y-15220000D02*
G75*
G02*
X12960000Y-15220000I300000J0D01*
G01*
X14012000Y-12873000D02*
G75*
G02*
X13412000Y-12873000I-300000J0D01*
G01*
X13412000Y-12873000D02*
G75*
G02*
X14012000Y-12873000I300000J0D01*
G01*
D11*
X7773277Y-16059984D02*
X7773277Y-15859984D01*
X7773277Y-15859984D02*
X7820896Y-15859984D01*
X7820896Y-15859984D02*
X7849467Y-15869508D01*
X7849467Y-15869508D02*
X7868515Y-15888555D01*
X7868515Y-15888555D02*
X7878039Y-15907603D01*
X7878039Y-15907603D02*
X7887562Y-15945698D01*
X7887562Y-15945698D02*
X7887562Y-15974269D01*
X7887562Y-15974269D02*
X7878039Y-16012365D01*
X7878039Y-16012365D02*
X7868515Y-16031412D01*
X7868515Y-16031412D02*
X7849467Y-16050460D01*
X7849467Y-16050460D02*
X7820896Y-16059984D01*
X7820896Y-16059984D02*
X7773277Y-16059984D01*
X7973277Y-16059984D02*
X7973277Y-15926650D01*
X7973277Y-15964746D02*
X7982801Y-15945698D01*
X7982801Y-15945698D02*
X7992324Y-15936174D01*
X7992324Y-15936174D02*
X8011372Y-15926650D01*
X8011372Y-15926650D02*
X8030420Y-15926650D01*
X8097086Y-16059984D02*
X8097086Y-15926650D01*
X8097086Y-15859984D02*
X8087562Y-15869508D01*
X8087562Y-15869508D02*
X8097086Y-15879031D01*
X8097086Y-15879031D02*
X8106610Y-15869508D01*
X8106610Y-15869508D02*
X8097086Y-15859984D01*
X8097086Y-15859984D02*
X8097086Y-15879031D01*
X8220896Y-16059984D02*
X8201848Y-16050460D01*
X8201848Y-16050460D02*
X8192324Y-16031412D01*
X8192324Y-16031412D02*
X8192324Y-15859984D01*
X8325658Y-16059984D02*
X8306610Y-16050460D01*
X8306610Y-16050460D02*
X8297086Y-16031412D01*
X8297086Y-16031412D02*
X8297086Y-15859984D01*
X8554229Y-16059984D02*
X8554229Y-15859984D01*
X8554229Y-15859984D02*
X8620896Y-16002841D01*
X8620896Y-16002841D02*
X8687563Y-15859984D01*
X8687563Y-15859984D02*
X8687563Y-16059984D01*
X8868515Y-16059984D02*
X8868515Y-15955222D01*
X8868515Y-15955222D02*
X8858991Y-15936174D01*
X8858991Y-15936174D02*
X8839944Y-15926650D01*
X8839944Y-15926650D02*
X8801848Y-15926650D01*
X8801848Y-15926650D02*
X8782801Y-15936174D01*
X8868515Y-16050460D02*
X8849467Y-16059984D01*
X8849467Y-16059984D02*
X8801848Y-16059984D01*
X8801848Y-16059984D02*
X8782801Y-16050460D01*
X8782801Y-16050460D02*
X8773277Y-16031412D01*
X8773277Y-16031412D02*
X8773277Y-16012365D01*
X8773277Y-16012365D02*
X8782801Y-15993317D01*
X8782801Y-15993317D02*
X8801848Y-15983793D01*
X8801848Y-15983793D02*
X8849467Y-15983793D01*
X8849467Y-15983793D02*
X8868515Y-15974269D01*
X8963753Y-15926650D02*
X8963753Y-16126650D01*
X8963753Y-15936174D02*
X8982801Y-15926650D01*
X8982801Y-15926650D02*
X9020896Y-15926650D01*
X9020896Y-15926650D02*
X9039944Y-15936174D01*
X9039944Y-15936174D02*
X9049467Y-15945698D01*
X9049467Y-15945698D02*
X9058991Y-15964746D01*
X9058991Y-15964746D02*
X9058991Y-16021888D01*
X9058991Y-16021888D02*
X9049467Y-16040936D01*
X9049467Y-16040936D02*
X9039944Y-16050460D01*
X9039944Y-16050460D02*
X9020896Y-16059984D01*
X9020896Y-16059984D02*
X8982801Y-16059984D01*
X8982801Y-16059984D02*
X8963753Y-16050460D01*
X9144705Y-16040936D02*
X9154229Y-16050460D01*
X9154229Y-16050460D02*
X9144705Y-16059984D01*
X9144705Y-16059984D02*
X9135182Y-16050460D01*
X9135182Y-16050460D02*
X9144705Y-16040936D01*
X9144705Y-16040936D02*
X9144705Y-16059984D01*
X9144705Y-15936174D02*
X9154229Y-15945698D01*
X9154229Y-15945698D02*
X9144705Y-15955222D01*
X9144705Y-15955222D02*
X9135182Y-15945698D01*
X9135182Y-15945698D02*
X9144705Y-15936174D01*
X9144705Y-15936174D02*
X9144705Y-15955222D01*
M02*
