%TF.GenerationSoftware,KiCad,Pcbnew,10.0.4*%
%TF.CreationDate,2026-07-17T11:43:07+05:30*%
%TF.ProjectId,Rowwy,526f7777-792e-46b6-9963-61645f706362,rev?*%
%TF.SameCoordinates,Original*%
%TF.FileFunction,Paste,Top*%
%TF.FilePolarity,Positive*%
%FSLAX46Y46*%
G04 Gerber Fmt 4.6, Leading zero omitted, Abs format (unit mm)*
G04 Created by KiCad (PCBNEW 10.0.4) date 2026-07-17 11:43:07*
%MOMM*%
%LPD*%
G01*
G04 APERTURE LIST*
G04 Aperture macros list*
%AMRoundRect*
0 Rectangle with rounded corners*
0 $1 Rounding radius*
0 $2 $3 $4 $5 $6 $7 $8 $9 X,Y pos of 4 corners*
0 Add a 4 corners polygon primitive as box body*
4,1,4,$2,$3,$4,$5,$6,$7,$8,$9,$2,$3,0*
0 Add four circle primitives for the rounded corners*
1,1,$1+$1,$2,$3*
1,1,$1+$1,$4,$5*
1,1,$1+$1,$6,$7*
1,1,$1+$1,$8,$9*
0 Add four rect primitives between the rounded corners*
20,1,$1+$1,$2,$3,$4,$5,0*
20,1,$1+$1,$4,$5,$6,$7,0*
20,1,$1+$1,$6,$7,$8,$9,0*
20,1,$1+$1,$8,$9,$2,$3,0*%
G04 Aperture macros list end*
%ADD10RoundRect,0.225000X-0.250000X0.225000X-0.250000X-0.225000X0.250000X-0.225000X0.250000X0.225000X0*%
%ADD11RoundRect,0.218750X0.256250X-0.218750X0.256250X0.218750X-0.256250X0.218750X-0.256250X-0.218750X0*%
%ADD12O,2.082000X0.364000*%
%ADD13R,0.550000X1.100000*%
%ADD14RoundRect,0.225000X-0.225000X-0.250000X0.225000X-0.250000X0.225000X0.250000X-0.225000X0.250000X0*%
%ADD15RoundRect,0.225000X0.250000X-0.225000X0.250000X0.225000X-0.250000X0.225000X-0.250000X-0.225000X0*%
G04 APERTURE END LIST*
D10*
%TO.C,C3*%
X111380000Y-134885000D03*
X111380000Y-136435000D03*
%TD*%
D11*
%TO.C,L1*%
X108160000Y-136517500D03*
X108160000Y-134942500D03*
%TD*%
D12*
%TO.C,U1*%
X87990000Y-138700000D03*
X87990000Y-139350000D03*
X87990000Y-140000000D03*
X87990000Y-140650000D03*
X87990000Y-141300000D03*
X87990000Y-141960000D03*
X87990000Y-142610000D03*
X87990000Y-143260000D03*
X87990000Y-143910000D03*
X87990000Y-144560000D03*
X87990000Y-145210000D03*
X87990000Y-145860000D03*
X94970000Y-145860000D03*
X94970000Y-145210000D03*
X94970000Y-144560000D03*
X94970000Y-143910000D03*
X94970000Y-143260000D03*
X94970000Y-142610000D03*
X94970000Y-141960000D03*
X94970000Y-141300000D03*
X94970000Y-140650000D03*
X94970000Y-140000000D03*
X94970000Y-139350000D03*
X94970000Y-138700000D03*
%TD*%
D10*
%TO.C,C7*%
X119550000Y-147340000D03*
X119550000Y-148890000D03*
%TD*%
%TO.C,C8*%
X117810000Y-147355000D03*
X117810000Y-148905000D03*
%TD*%
D13*
%TO.C,U2*%
X107220000Y-142920000D03*
X108170000Y-142920000D03*
X109120000Y-142920000D03*
X109120000Y-140520000D03*
X108170000Y-140520000D03*
X107220000Y-140520000D03*
%TD*%
D10*
%TO.C,C6*%
X98990000Y-141250000D03*
X98990000Y-142800000D03*
%TD*%
%TO.C,C12*%
X96320000Y-149980000D03*
X96320000Y-151530000D03*
%TD*%
D14*
%TO.C,C2*%
X106600000Y-138530000D03*
X108150000Y-138530000D03*
%TD*%
D10*
%TO.C,C11*%
X98070000Y-149975000D03*
X98070000Y-151525000D03*
%TD*%
%TO.C,C9*%
X97360000Y-141215000D03*
X97360000Y-142765000D03*
%TD*%
D15*
%TO.C,C10*%
X118880000Y-142930000D03*
X118880000Y-141380000D03*
%TD*%
D10*
%TO.C,C4*%
X109780000Y-134885000D03*
X109780000Y-136435000D03*
%TD*%
D15*
%TO.C,C5*%
X120490000Y-142930000D03*
X120490000Y-141380000D03*
%TD*%
%TO.C,C1*%
X111600000Y-142140000D03*
X111600000Y-140590000D03*
%TD*%
D12*
%TO.C,U3*%
X129780000Y-145512500D03*
X129780000Y-144862500D03*
X129780000Y-144212500D03*
X129780000Y-143562500D03*
X129780000Y-142912500D03*
X129780000Y-142252500D03*
X129780000Y-141602500D03*
X129780000Y-140952500D03*
X129780000Y-140302500D03*
X129780000Y-139652500D03*
X129780000Y-139002500D03*
X129780000Y-138352500D03*
X122800000Y-138352500D03*
X122800000Y-139002500D03*
X122800000Y-139652500D03*
X122800000Y-140302500D03*
X122800000Y-140952500D03*
X122800000Y-141602500D03*
X122800000Y-142252500D03*
X122800000Y-142912500D03*
X122800000Y-143562500D03*
X122800000Y-144212500D03*
X122800000Y-144862500D03*
X122800000Y-145512500D03*
%TD*%
M02*
